<?xml version="1.0" encoding="UTF-8"?>
<!DOCTYPE svg PUBLIC "-//W3C//DTD SVG 1.1//EN" "http://www.w3.org/Graphics/SVG/1.1/DTD/svg11.dtd">
<!-- Creator: CorelDRAW SE -->
<svg xmlns="http://www.w3.org/2000/svg" xml:space="preserve" width="21.6746mm" height="21.6746mm" version="1.1" style="shape-rendering:geometricPrecision; text-rendering:geometricPrecision; image-rendering:optimizeQuality; fill-rule:evenodd; clip-rule:evenodd"
viewBox="0 0 2167.46 2167.46"
 xmlns:xlink="http://www.w3.org/1999/xlink">
 <defs>
  <style type="text/css">
   <![CDATA[
    .fil0 {fill:black}
   ]]>
  </style>
 </defs>
 <g id="Warstwa_x0020_1">
  <metadata id="CorelCorpID_0Corel-Layer"/>
  <g id="coin-euro.svg">
   <path class="fil0" d="M732.36 507.99c-310.95,0 -563.04,252.08 -563.04,563.04 0,310.95 252.08,563.03 563.04,563.03 310.94,0 563.03,-252.08 563.03,-563.03 0,-310.96 -252.08,-563.04 -563.03,-563.04zm0 1013.46c-248.75,0 -450.43,-201.68 -450.43,-450.42 0,-248.75 201.68,-450.43 450.43,-450.43 248.74,0 450.42,201.68 450.42,450.43 0,248.74 -201.68,450.42 -450.42,450.42z"/>
   <path class="fil0" d="M956.18 1188.73c-17.91,-10.44 -40.87,-4.35 -51.32,13.59 -20.23,34.8 -57.58,56.42 -97.44,56.42l-150.14 0c-48.94,0 -90.65,-31.38 -106.14,-75.07l181.22 0c20.72,0 37.53,-16.81 37.53,-37.54 0,-20.73 -16.81,-37.54 -37.53,-37.54l-187.68 0 0 -75.07 187.68 0.01c20.72,0 37.53,-16.81 37.53,-37.54 0,-20.72 -16.81,-37.54 -37.53,-37.54l-181.22 0c15.5,-43.69 57.2,-75.07 106.14,-75.07l150.15 0c39.86,0 77.2,21.62 97.45,56.42 10.44,17.9 33.41,23.99 51.31,13.55 17.9,-10.44 23.99,-33.41 13.55,-51.32 -33.64,-57.81 -95.83,-93.73 -162.34,-93.73l-150.15 0.02c-90.65,0 -166.46,64.56 -183.89,150.13l-41.32 0c-20.73,0 -37.54,16.82 -37.54,37.54 0,20.73 16.81,37.54 37.54,37.54l37.54 0 0 75.08 -37.54 -0.02c-20.73,0 -37.54,16.81 -37.54,37.54 0,20.73 16.81,37.54 37.54,37.54l41.32 0c17.45,85.54 93.28,150.13 183.89,150.13l150.14 0c66.5,0 128.71,-35.92 162.33,-93.73 10.45,-17.9 4.36,-40.91 -13.59,-51.31l0.05 -0.03z"/>
  </g>
  <path id="coin-dollar.svg" class="fil0" d="M1765.3 169.32c-128.58,0 -232.84,104.25 -232.84,232.84 0,128.59 104.25,232.84 232.84,232.84 128.58,0 232.84,-104.25 232.84,-232.84 0,-128.59 -104.25,-232.84 -232.84,-232.84zm0 419.11c-102.87,0 -186.27,-83.4 -186.27,-186.27 0,-102.87 83.4,-186.27 186.27,-186.27 102.87,0 186.27,83.4 186.27,186.27 0,102.87 -83.4,186.27 -186.27,186.27zm15.52 -201.79l0 -62.09 62.09 0 0 -31.05 -62.09 0 0 -31.04 -31.04 0 0 31.04 -62.09 0 0 124.18 62.09 0 0 62.09 -62.09 0 0 31.05 62.09 0 0 31.04 31.04 0 0 -31.05 62.09 0.01 0 -124.18 -62.09 0zm-31.04 0l-31.04 0 0 -62.09 31.04 0 0 62.09zm62.09 93.13l-31.05 0 0 -62.09 31.05 0 0 62.09z"/>
  <g id="coin-pound.svg">
   <path class="fil0" d="M1756.83 855.13c-128.58,0 -232.84,104.25 -232.84,232.84 0,128.59 104.25,232.84 232.84,232.84 128.58,0 232.84,-104.25 232.84,-232.84 0,-128.59 -104.25,-232.84 -232.84,-232.84zm0 419.11c-102.87,0 -186.27,-83.4 -186.27,-186.27 0,-102.87 83.4,-186.27 186.27,-186.27 102.87,0 186.27,83.4 186.27,186.27 0,102.87 -83.4,186.27 -186.27,186.27z"/>
   <path class="fil0" d="M1818.92 1165.58l-108.65 0 0 -62.09 46.56 0c8.57,0 15.52,-6.95 15.52,-15.52 0,-8.57 -6.95,-15.52 -15.52,-15.52l-46.56 0 0 -15.53c0,-25.67 20.89,-46.57 46.57,-46.57 16.57,0 32.03,8.93 40.34,23.3 4.3,7.42 13.79,9.95 21.2,5.67 7.42,-4.28 9.95,-13.79 5.67,-21.2 -13.85,-23.94 -39.6,-38.79 -67.23,-38.79 -42.79,0 -77.61,34.81 -77.61,77.61l0 15.52 -15.52 0c-8.58,0 -15.53,6.96 -15.53,15.53 0,8.57 6.95,15.52 15.53,15.52l15.51 -0.01 0 93.14 139.7 0c8.58,0 15.53,-6.95 15.53,-15.53 0,-8.57 -6.95,-15.52 -15.53,-15.52l0.02 -0.01z"/>
  </g>
  <g id="coin-yen.svg">
   <path class="fil0" d="M1765.29 1532.46c-128.58,0 -232.83,104.24 -232.83,232.83 0,128.59 104.24,232.83 232.83,232.83 128.58,0 232.83,-104.24 232.83,-232.83 0,-128.59 -104.24,-232.83 -232.83,-232.83zm0 419.09c-102.86,0 -186.26,-83.4 -186.26,-186.26 0,-102.86 83.4,-186.26 186.26,-186.26 102.86,0 186.26,83.4 186.26,186.26 0,102.86 -83.4,186.26 -186.26,186.26z"/>
   <path class="fil0" d="M1827.38 1780.81c8.57,0 15.52,-6.95 15.52,-15.52 0,-8.57 -6.95,-15.52 -15.52,-15.52l-33.08 0 45.99 -69c4.76,-7.14 2.83,-16.77 -4.3,-21.53 -7.12,-4.76 -16.76,-2.83 -21.53,4.3l-49.17 73.76 -49.17 -73.76c-4.75,-7.14 -14.39,-9.06 -21.53,-4.3 -7.14,4.76 -9.07,14.39 -4.3,21.53l46 69 -33.09 0c-8.57,0 -15.52,6.95 -15.52,15.52 0,8.57 6.95,15.52 15.52,15.52l46.57 0 0 31.05 -46.57 -0.01c-8.57,0 -15.52,6.95 -15.52,15.53 0,8.57 6.95,15.52 15.52,15.52l46.57 0 0 46.57c0,8.57 6.95,15.52 15.52,15.52 8.57,0 15.52,-6.95 15.52,-15.52l0 -46.57 46.57 0c8.57,0 15.52,-6.95 15.52,-15.52 0,-8.58 -6.95,-15.53 -15.52,-15.53l-46.57 0 0 -31.04 46.57 0z"/>
  </g>
 </g>
</svg>
